# xmcd
#
# Track frame offsets: 
#        150
#        20772
#        34938
#        51480
#        65167
#        82979
#        101006
#        117565
#        131505
#        153367
#
# Disc length: 2666 seconds
#
# Revision: 0
# Processed by: cddbd v1.5.2PL0 Copyright (c) Steve Scherf et al.
# Submitted via: ExactAudioCopy v0.99pb5
#
DISCID=8d0a680a
DTITLE=The Haunted Windchimes - Honey Moonshine
DYEAR=2010
DGENRE=Country
TTITLE0=little bones
TTITLE1=find the door
TTITLE2=waitin' for a train
TTITLE3=fleeting transient feelings
TTITLE4=guitar woman
TTITLE5=honey moonshine
TTITLE6=sea bride
TTITLE7=don't take my baby away
TTITLE8=your song
TTITLE9=a ballad of human progress
EXTD=
EXTT0=
EXTT1=
EXTT2=
EXTT3=
EXTT4=
EXTT5=
EXTT6=
EXTT7=
EXTT8=
EXTT9=
PLAYORDER=
